<?xml version="1.0" encoding="utf-8" ?>
<svg baseProfile="full" height="297mm" version="1.1" width="210mm" xmlns="http://www.w3.org/2000/svg" xmlns:ev="http://www.w3.org/2001/xml-events" xmlns:xlink="http://www.w3.org/1999/xlink"><defs /><rect fill="white" height="88mm" rx="4" ry="4" stroke="black" stroke-width="2" width="64mm" x="3.5mm" y="3.5mm" /><text x="7.0mm" y="7.0mm">Pinning Shot </text><text x="7.0mm" y="10.5mm">Weapon </text><text x="7.0mm" y="14.0mm">Bow </text><text x="7.0mm" y="17.5mm">Action </text><text x="7.0mm" y="21.0mm">Target can only move one </text><text x="7.0mm" y="24.5mm">hex next turn.  </text><circle cx="33.5mm" cy="58.0mm" fill="gray" r="5mm" stroke="black" stroke-width="2" /><circle cx="33.5mm" cy="68.0mm" fill="green" r="5mm" stroke="black" stroke-width="2" /><circle cx="42.1602540378mm" cy="63.0mm" fill="white" r="5mm" stroke="black" stroke-width="2" /><circle cx="42.1602540378mm" cy="53.0mm" fill="white" r="5mm" stroke="black" stroke-width="2" /><circle cx="33.5mm" cy="48.0mm" fill="orange" r="5mm" stroke="black" stroke-width="2" /><circle cx="24.8397459622mm" cy="53.0mm" fill="green" r="5mm" stroke="black" stroke-width="2" /><circle cx="24.8397459622mm" cy="63.0mm" fill="white" r="5mm" stroke="black" stroke-width="2" /><rect fill="white" height="88mm" rx="4" ry="4" stroke="black" stroke-width="2" width="64mm" x="71.0mm" y="3.5mm" /><text x="74.5mm" y="7.0mm">Quick Shot </text><text x="74.5mm" y="10.5mm">Weapon </text><text x="74.5mm" y="14.0mm">Bow </text><text x="74.5mm" y="17.5mm">Action </text><text x="74.5mm" y="21.0mm">Fire twice with this weapon </text><circle cx="101.0mm" cy="54.5mm" fill="gray" r="5mm" stroke="black" stroke-width="2" /><circle cx="101.0mm" cy="64.5mm" fill="green" r="5mm" stroke="black" stroke-width="2" /><circle cx="109.660254038mm" cy="59.5mm" fill="white" r="5mm" stroke="black" stroke-width="2" /><circle cx="109.660254038mm" cy="49.5mm" fill="white" r="5mm" stroke="black" stroke-width="2" /><circle cx="101.0mm" cy="44.5mm" fill="orange" r="5mm" stroke="black" stroke-width="2" /><circle cx="92.3397459622mm" cy="49.5mm" fill="green" r="5mm" stroke="black" stroke-width="2" /><circle cx="92.3397459622mm" cy="59.5mm" fill="white" r="5mm" stroke="black" stroke-width="2" /><rect fill="white" height="88mm" rx="4" ry="4" stroke="black" stroke-width="2" width="64mm" x="138.5mm" y="3.5mm" /><text x="142.0mm" y="7.0mm">Shield Bash </text><text x="142.0mm" y="10.5mm">Weapon </text><text x="142.0mm" y="14.0mm">Shield </text><text x="142.0mm" y="17.5mm">Action </text><text x="142.0mm" y="21.0mm">Attacker suffers - 2 </text><text x="142.0mm" y="24.5mm">accuracy during their next </text><text x="142.0mm" y="28.0mm">turn.  </text><circle cx="168.5mm" cy="61.5mm" fill="gray" r="5mm" stroke="black" stroke-width="2" /><circle cx="168.5mm" cy="71.5mm" fill="green" r="5mm" stroke="black" stroke-width="2" /><circle cx="177.160254038mm" cy="66.5mm" fill="white" r="5mm" stroke="black" stroke-width="2" /><circle cx="177.160254038mm" cy="56.5mm" fill="white" r="5mm" stroke="black" stroke-width="2" /><circle cx="168.5mm" cy="51.5mm" fill="orange" r="5mm" stroke="black" stroke-width="2" /><circle cx="159.839745962mm" cy="56.5mm" fill="green" r="5mm" stroke="black" stroke-width="2" /><circle cx="159.839745962mm" cy="66.5mm" fill="white" r="5mm" stroke="black" stroke-width="2" /><rect fill="white" height="88mm" rx="4" ry="4" stroke="black" stroke-width="2" width="64mm" x="3.5mm" y="95.0mm" /><text x="7.0mm" y="98.5mm">Wall </text><text x="7.0mm" y="102.0mm">Weapon </text><text x="7.0mm" y="105.5mm">Shield </text><text x="7.0mm" y="109.0mm">Action/Reaction </text><text x="7.0mm" y="112.5mm">Until you suffer damage </text><text x="7.0mm" y="116.0mm">gain +2 Toughness to all </text><text x="7.0mm" y="119.5mm">nodes.  </text><circle cx="33.5mm" cy="153.0mm" fill="gray" r="5mm" stroke="black" stroke-width="2" /><circle cx="33.5mm" cy="163.0mm" fill="green" r="5mm" stroke="black" stroke-width="2" /><circle cx="42.1602540378mm" cy="158.0mm" fill="white" r="5mm" stroke="black" stroke-width="2" /><circle cx="42.1602540378mm" cy="148.0mm" fill="white" r="5mm" stroke="black" stroke-width="2" /><circle cx="33.5mm" cy="143.0mm" fill="orange" r="5mm" stroke="black" stroke-width="2" /><circle cx="24.8397459622mm" cy="148.0mm" fill="green" r="5mm" stroke="black" stroke-width="2" /><circle cx="24.8397459622mm" cy="158.0mm" fill="white" r="5mm" stroke="black" stroke-width="2" /><rect fill="white" height="88mm" rx="4" ry="4" stroke="black" stroke-width="2" width="64mm" x="71.0mm" y="95.0mm" /><text x="74.5mm" y="98.5mm">Roll </text><text x="74.5mm" y="102.0mm">Weapon </text><text x="74.5mm" y="105.5mm">Basic </text><text x="74.5mm" y="109.0mm">Action/Reaction </text><text x="74.5mm" y="112.5mm">Move 3 hexes in any </text><text x="74.5mm" y="116.0mm">direction.  </text><circle cx="101.0mm" cy="149.5mm" fill="gray" r="5mm" stroke="black" stroke-width="2" /><circle cx="101.0mm" cy="159.5mm" fill="green" r="5mm" stroke="black" stroke-width="2" /><circle cx="109.660254038mm" cy="154.5mm" fill="white" r="5mm" stroke="black" stroke-width="2" /><circle cx="109.660254038mm" cy="144.5mm" fill="white" r="5mm" stroke="black" stroke-width="2" /><circle cx="101.0mm" cy="139.5mm" fill="orange" r="5mm" stroke="black" stroke-width="2" /><circle cx="92.3397459622mm" cy="144.5mm" fill="green" r="5mm" stroke="black" stroke-width="2" /><circle cx="92.3397459622mm" cy="154.5mm" fill="white" r="5mm" stroke="black" stroke-width="2" /><rect fill="white" height="88mm" rx="4" ry="4" stroke="black" stroke-width="2" width="64mm" x="138.5mm" y="95.0mm" /><text x="142.0mm" y="98.5mm">Shove </text><text x="142.0mm" y="102.0mm">Weapon </text><text x="142.0mm" y="105.5mm">Basic </text><text x="142.0mm" y="109.0mm">Action/Reaction </text><text x="142.0mm" y="112.5mm">Target within 0/Attacker </text><text x="142.0mm" y="116.0mm">suffers - 2 Accuracy for </text><text x="142.0mm" y="119.5mm">their next attack.  </text><circle cx="168.5mm" cy="153.0mm" fill="gray" r="5mm" stroke="black" stroke-width="2" /><circle cx="168.5mm" cy="163.0mm" fill="green" r="5mm" stroke="black" stroke-width="2" /><circle cx="177.160254038mm" cy="158.0mm" fill="white" r="5mm" stroke="black" stroke-width="2" /><circle cx="177.160254038mm" cy="148.0mm" fill="white" r="5mm" stroke="black" stroke-width="2" /><circle cx="168.5mm" cy="143.0mm" fill="orange" r="5mm" stroke="black" stroke-width="2" /><circle cx="159.839745962mm" cy="148.0mm" fill="green" r="5mm" stroke="black" stroke-width="2" /><circle cx="159.839745962mm" cy="158.0mm" fill="white" r="5mm" stroke="black" stroke-width="2" /><rect fill="white" height="88mm" rx="4" ry="4" stroke="black" stroke-width="2" width="64mm" x="3.5mm" y="186.5mm" /><text x="7.0mm" y="190.0mm">Counter </text><text x="7.0mm" y="193.5mm">Weapon </text><text x="7.0mm" y="197.0mm">Basic </text><text x="7.0mm" y="200.5mm">Reaction </text><text x="7.0mm" y="204.0mm">Attack once for half damage </text><text x="7.0mm" y="207.5mm">(rounding up).  </text><circle cx="33.5mm" cy="241.0mm" fill="gray" r="5mm" stroke="black" stroke-width="2" /><circle cx="33.5mm" cy="251.0mm" fill="green" r="5mm" stroke="black" stroke-width="2" /><circle cx="42.1602540378mm" cy="246.0mm" fill="white" r="5mm" stroke="black" stroke-width="2" /><circle cx="42.1602540378mm" cy="236.0mm" fill="white" r="5mm" stroke="black" stroke-width="2" /><circle cx="33.5mm" cy="231.0mm" fill="orange" r="5mm" stroke="black" stroke-width="2" /><circle cx="24.8397459622mm" cy="236.0mm" fill="green" r="5mm" stroke="black" stroke-width="2" /><circle cx="24.8397459622mm" cy="246.0mm" fill="white" r="5mm" stroke="black" stroke-width="2" /><rect fill="white" height="88mm" rx="4" ry="4" stroke="black" stroke-width="2" width="64mm" x="71.0mm" y="186.5mm" /><text x="74.5mm" y="190.0mm">Parry </text><text x="74.5mm" y="193.5mm">Weapon </text><text x="74.5mm" y="197.0mm">Basic </text><text x="74.5mm" y="200.5mm">Reaction </text><text x="74.5mm" y="204.0mm">Take no damage from the </text><text x="74.5mm" y="207.5mm">attack.  </text><circle cx="101.0mm" cy="241.0mm" fill="gray" r="5mm" stroke="black" stroke-width="2" /><circle cx="101.0mm" cy="251.0mm" fill="green" r="5mm" stroke="black" stroke-width="2" /><circle cx="109.660254038mm" cy="246.0mm" fill="white" r="5mm" stroke="black" stroke-width="2" /><circle cx="109.660254038mm" cy="236.0mm" fill="white" r="5mm" stroke="black" stroke-width="2" /><circle cx="101.0mm" cy="231.0mm" fill="orange" r="5mm" stroke="black" stroke-width="2" /><circle cx="92.3397459622mm" cy="236.0mm" fill="green" r="5mm" stroke="black" stroke-width="2" /><circle cx="92.3397459622mm" cy="246.0mm" fill="white" r="5mm" stroke="black" stroke-width="2" /><rect fill="white" height="88mm" rx="4" ry="4" stroke="black" stroke-width="2" width="64mm" x="138.5mm" y="186.5mm" /><text x="142.0mm" y="190.0mm">Backstab </text><text x="142.0mm" y="193.5mm">Weapon </text><text x="142.0mm" y="197.0mm">Dagger </text><text x="142.0mm" y="200.5mm">Action/Reaction </text><text x="142.0mm" y="204.0mm">Move 2 hexes in any </text><text x="142.0mm" y="207.5mm">direction and make an </text><text x="142.0mm" y="211.0mm">attack.  </text><circle cx="168.5mm" cy="244.5mm" fill="gray" r="5mm" stroke="black" stroke-width="2" /><circle cx="168.5mm" cy="254.5mm" fill="green" r="5mm" stroke="black" stroke-width="2" /><circle cx="177.160254038mm" cy="249.5mm" fill="white" r="5mm" stroke="black" stroke-width="2" /><circle cx="177.160254038mm" cy="239.5mm" fill="white" r="5mm" stroke="black" stroke-width="2" /><circle cx="168.5mm" cy="234.5mm" fill="orange" r="5mm" stroke="black" stroke-width="2" /><circle cx="159.839745962mm" cy="239.5mm" fill="green" r="5mm" stroke="black" stroke-width="2" /><circle cx="159.839745962mm" cy="249.5mm" fill="white" r="5mm" stroke="black" stroke-width="2" /></svg>