<?xml version="1.0" encoding="utf-8" ?>
<svg baseProfile="full" height="297mm" version="1.1" width="210mm" xmlns="http://www.w3.org/2000/svg" xmlns:ev="http://www.w3.org/2001/xml-events" xmlns:xlink="http://www.w3.org/1999/xlink"><defs /><rect fill="white" height="88mm" rx="4.0" ry="4.0" stroke="black" stroke-width="2" width="64mm" x="3.5mm" y="3.5mm" /><text style=" font-weight:bold" x="7.0mm" y="7.0mm">Pinning Shot </text><text style=" font-weight:bold" x="7.0mm" y="10.5mm">Weapon </text><text x="9.0mm" y="14.0mm">Bow </text><text style=" font-weight:bold" x="7.0mm" y="17.5mm">Action </text><text x="9.0mm" y="21.0mm">Target can only move one </text><text x="9.0mm" y="24.5mm">hex next turn. </text><rect fill="white" height="88mm" rx="4.0" ry="4.0" stroke="black" stroke-width="2" width="64mm" x="71.0mm" y="3.5mm" /><text style=" font-weight:bold" x="74.5mm" y="7.0mm">Quick Shot </text><text style=" font-weight:bold" x="74.5mm" y="10.5mm">Weapon </text><text x="76.5mm" y="14.0mm">Bow </text><text style=" font-weight:bold" x="74.5mm" y="17.5mm">Action </text><text x="76.5mm" y="21.0mm">Fire twice with this weapon </text><rect fill="white" height="88mm" rx="4.0" ry="4.0" stroke="black" stroke-width="2" width="64mm" x="138.5mm" y="3.5mm" /><text style=" font-weight:bold" x="142.0mm" y="7.0mm">Shield Bash </text><text style=" font-weight:bold" x="142.0mm" y="10.5mm">Weapon </text><text x="144.0mm" y="14.0mm">Shield </text><text style=" font-weight:bold" x="142.0mm" y="17.5mm">Action </text><text x="144.0mm" y="21.0mm">Attacker suffers -2 </text><text x="144.0mm" y="24.5mm">accuracy during their next </text><text x="144.0mm" y="28.0mm">turn. </text><rect fill="white" height="88mm" rx="4.0" ry="4.0" stroke="black" stroke-width="2" width="64mm" x="3.5mm" y="95.0mm" /><text style=" font-weight:bold" x="7.0mm" y="98.5mm">Wall </text><text style=" font-weight:bold" x="7.0mm" y="102.0mm">Weapon </text><text x="9.0mm" y="105.5mm">Shield </text><text style=" font-weight:bold" x="7.0mm" y="109.0mm">Action/Reaction </text><text x="9.0mm" y="112.5mm">Until you suffer damage </text><text x="9.0mm" y="116.0mm">gain +2 Toughness to all </text><text x="9.0mm" y="119.5mm">nodes. </text><rect fill="white" height="88mm" rx="4.0" ry="4.0" stroke="black" stroke-width="2" width="64mm" x="71.0mm" y="95.0mm" /><text style=" font-weight:bold" x="74.5mm" y="98.5mm">Roll </text><text style=" font-weight:bold" x="74.5mm" y="102.0mm">Weapon </text><text x="76.5mm" y="105.5mm">Basic </text><text style=" font-weight:bold" x="74.5mm" y="109.0mm">Action/Reaction </text><text x="76.5mm" y="112.5mm">Move 3 hexes in any </text><text x="76.5mm" y="116.0mm">direction. </text><rect fill="white" height="88mm" rx="4.0" ry="4.0" stroke="black" stroke-width="2" width="64mm" x="138.5mm" y="95.0mm" /><text style=" font-weight:bold" x="142.0mm" y="98.5mm">Shove </text><text style=" font-weight:bold" x="142.0mm" y="102.0mm">Weapon </text><text x="144.0mm" y="105.5mm">Basic </text><text style=" font-weight:bold" x="142.0mm" y="109.0mm">Action/Reaction </text><text x="144.0mm" y="112.5mm">Target within 0/Attacker </text><text x="144.0mm" y="116.0mm">suffers -2 Accuracy for </text><text x="144.0mm" y="119.5mm">their next attack. </text><rect fill="white" height="88mm" rx="4.0" ry="4.0" stroke="black" stroke-width="2" width="64mm" x="3.5mm" y="186.5mm" /><text style=" font-weight:bold" x="7.0mm" y="190.0mm">Counter </text><text style=" font-weight:bold" x="7.0mm" y="193.5mm">Weapon </text><text x="9.0mm" y="197.0mm">Basic </text><text style=" font-weight:bold" x="7.0mm" y="200.5mm">Reaction </text><text x="9.0mm" y="204.0mm">Attack once for half damage </text><text x="9.0mm" y="207.5mm">(rounding up). </text><rect fill="white" height="88mm" rx="4.0" ry="4.0" stroke="black" stroke-width="2" width="64mm" x="71.0mm" y="186.5mm" /><text style=" font-weight:bold" x="74.5mm" y="190.0mm">Parry </text><text style=" font-weight:bold" x="74.5mm" y="193.5mm">Weapon </text><text x="76.5mm" y="197.0mm">Basic </text><text style=" font-weight:bold" x="74.5mm" y="200.5mm">Reaction </text><text x="76.5mm" y="204.0mm">Take no damage from the </text><text x="76.5mm" y="207.5mm">attack. </text><rect fill="white" height="88mm" rx="4.0" ry="4.0" stroke="black" stroke-width="2" width="64mm" x="138.5mm" y="186.5mm" /><text style=" font-weight:bold" x="142.0mm" y="190.0mm">Backstab </text><text style=" font-weight:bold" x="142.0mm" y="193.5mm">Weapon </text><text x="144.0mm" y="197.0mm">Dagger </text><text style=" font-weight:bold" x="142.0mm" y="200.5mm">Action/Reaction </text><text x="144.0mm" y="204.0mm">Move 2 hexes in any </text><text x="144.0mm" y="207.5mm">direction and make an </text><text x="144.0mm" y="211.0mm">attack. </text></svg>